<?xml version="1.0" encoding="utf-8"?>
<!-- Generator: Adobe Illustrator 24.0.1, SVG Export Plug-In . SVG Version: 6.00 Build 0)  -->
<svg version="1.1" id="Layer_1" xmlns="http://www.w3.org/2000/svg" xmlns:xlink="http://www.w3.org/1999/xlink" x="0px" y="0px"
	 viewBox="0 0 512 512" style="enable-background:new 0 0 512 512;" xml:space="preserve">
<style type="text/css">
	.st0{fill:#FFFFFF;}
</style>
<g>
	<g>
		<path class="st0" d="M451.2,161.9c-0.2-1-0.5-1.9-0.9-2.8c-0.4-0.9-0.8-1.8-1.4-2.6c-0.6-0.8-1.2-1.6-1.9-2.3
			c-0.7-0.7-1.5-1.3-2.3-1.9c-0.8-0.5-1.7-1-2.6-1.4c-0.9-0.4-1.9-0.7-2.8-0.9c-2-0.4-3.9-0.4-5.9,0c-1,0.2-1.9,0.5-2.8,0.9
			c-0.9,0.4-1.8,0.8-2.6,1.4c-0.8,0.5-1.6,1.2-2.3,1.9c-0.7,0.7-1.3,1.5-1.9,2.3c-0.5,0.8-1,1.7-1.4,2.6c-0.4,0.9-0.7,1.9-0.9,2.8
			c-0.2,1-0.3,2-0.3,2.9c0,4,1.6,7.9,4.4,10.6c0.7,0.7,1.5,1.3,2.3,1.9c0.8,0.5,1.7,1,2.6,1.4c0.9,0.4,1.9,0.7,2.8,0.9
			c1,0.2,2,0.3,2.9,0.3c1,0,2-0.1,3-0.3c0.9-0.2,1.9-0.5,2.8-0.9c0.9-0.4,1.8-0.8,2.6-1.4c0.8-0.6,1.6-1.2,2.3-1.9
			c2.8-2.8,4.4-6.7,4.4-10.6C451.5,163.8,451.4,162.8,451.2,161.9z"/>
	</g>
</g>
<g>
	<g>
		<path class="st0" d="M433.1,108.8c-2.2-4.3-4.5-8.5-7-12.7c-17.4-28.8-41.9-52.8-71-69.6C325.1,9.2,290.8,0,256,0
			C146.5,0,57.4,89.1,57.4,198.6V233c-30.1,13.5-51.1,43.8-51.1,78.8c0,47.6,38.8,86.4,86.4,86.4h14.6c7,20.6,26.5,35.4,49.4,35.4
			c28.8,0,52.2-23.4,52.2-52.2V242.2c0-28.8-23.4-52.2-52.2-52.2c-22.9,0-42.4,14.9-49.4,35.4H92.7c-1.8,0-3.5,0.1-5.2,0.2v-27
			c0-92.9,75.6-168.5,168.5-168.5c59.6,0,113.5,30.5,144.3,81.5c2.1,3.5,4.1,7.1,6,10.7c3.8,7.4,12.8,10.4,20.2,6.6
			C434,125.2,436.9,116.2,433.1,108.8z M134.7,381.4V242.2c0-12.2,9.9-22.1,22.1-22.1c12.2,0,22.1,9.9,22.1,22.1v139.2
			c0,12.2-9.9,22.1-22.1,22.1C144.6,403.5,134.7,393.6,134.7,381.4C134.7,381.4,134.7,381.4,134.7,381.4z M92.7,255.5h11.9v112.5
			H92.7c-31,0-56.3-25.2-56.3-56.3C36.5,280.8,61.7,255.5,92.7,255.5z"/>
	</g>
</g>
<g>
	<g>
		<path class="st0" d="M454.6,233v-19.3c0-8.3-6.7-15.1-15.1-15.1s-15.1,6.7-15.1,15.1v11.9c-1.7-0.1-3.5-0.2-5.2-0.2h-14.6
			c-7-20.6-26.5-35.4-49.4-35.4c-28.8,0-52.2,23.4-52.2,52.2v139.2c0,28.8,23.4,52.2,52.2,52.2c22.9,0,42.4-14.9,49.4-35.4h14.6
			c4.2,0,8.4-0.3,12.4-0.9v55.3H311.6c-6.1-17.3-22.7-29.8-42-29.8h-25.6c-24.6,0-44.6,20-44.6,44.6s20,44.6,44.6,44.6h25.6
			c19.2,0,35.6-12.2,41.9-29.3h135.3c8.3,0,15.1-6.7,15.1-15.1v-80.7c26.2-14.9,43.9-43,43.9-75.1
			C505.6,276.7,484.6,246.5,454.6,233z M377.3,381.4L377.3,381.4c0,12.2-9.9,22.1-22.1,22.1c-12.2,0-22.1-9.9-22.1-22.1V242.2
			c0-12.2,9.9-22.1,22.1-22.1c12.2,0,22.1,9.9,22.1,22.1V381.4z M283.9,469.1c-0.8,7.2-7,12.8-14.4,12.8h-25.6
			c-8,0-14.5-6.5-14.5-14.5c0-8,6.5-14.5,14.5-14.5h25.6c7.5,0,13.7,5.7,14.4,13c-0.1,0.6-0.1,1.1-0.1,1.7
			C283.9,468.1,283.9,468.6,283.9,469.1z M419.3,368.1h-11.9V255.5h11.9c31,0,56.3,25.2,56.3,56.3S450.3,368.1,419.3,368.1z"/>
	</g>
</g>
</svg>
